<svg width="492" height="291" viewBox="0 0 492 291" fill="none" xmlns="http://www.w3.org/2000/svg">
<g style="mix-blend-mode:soft-light">
<path d="M-128.015 164.205L179.355 72.5311" stroke="white" stroke-width="0.724997"/>
<path d="M164.129 192.034L383.679 126.553" stroke="url(#paint0_linear_19_846)" stroke-width="0.724997"/>
<path d="M274.917 301.101L335.127 184.504L-102.959 320.279L-83.5237 412.391L274.917 301.101Z" fill="url(#paint1_linear_19_846)"/>
<path d="M274.917 301.101L335.127 184.504L-102.959 320.279L-83.5237 412.391L274.917 301.101Z" fill="url(#paint2_linear_19_846)"/>
<path d="M426.015 175.663L455.879 121.455L-125.396 301.398L-116.414 346.212L426.015 175.663Z" fill="url(#paint3_linear_19_846)"/>
<path d="M327.439 43.5878L-52.0721 162.624L-97.8861 251.546L281.885 138.278L327.439 43.5878Z" fill="url(#paint4_linear_19_846)"/>
<path d="M327.439 43.5878L-52.0721 162.624L-97.8861 251.546L281.885 138.278L327.439 43.5878Z" fill="url(#paint5_linear_19_846)"/>
<path d="M124.006 226.282L179.99 110.215L-110.541 196.867L-87.4916 293.746L124.006 226.282Z" fill="url(#paint6_linear_19_846)"/>
<path d="M124.006 226.282L179.99 110.215L-110.541 196.867L-87.4916 293.746L124.006 226.282Z" fill="url(#paint7_linear_19_846)"/>
</g>
<defs>
<linearGradient id="paint0_linear_19_846" x1="164.272" y1="192.513" x2="383.822" y2="127.032" gradientUnits="userSpaceOnUse">
<stop offset="0.392369" stop-color="white"/>
<stop offset="1" stop-color="white" stop-opacity="0"/>
</linearGradient>
<linearGradient id="paint1_linear_19_846" x1="194.176" y1="278.055" x2="-4.75907" y2="337.388" gradientUnits="userSpaceOnUse">
<stop stop-color="white"/>
<stop offset="1" stop-opacity="0"/>
</linearGradient>
<linearGradient id="paint2_linear_19_846" x1="194.176" y1="278.055" x2="-4.75907" y2="337.388" gradientUnits="userSpaceOnUse">
<stop stop-color="white"/>
<stop offset="1" stop-opacity="0"/>
</linearGradient>
<linearGradient id="paint3_linear_19_846" x1="259.564" y1="207.041" x2="-1.80015" y2="284.994" gradientUnits="userSpaceOnUse">
<stop stop-color="white"/>
<stop offset="1" stop-opacity="0"/>
</linearGradient>
<linearGradient id="paint4_linear_19_846" x1="183.254" y1="127.143" x2="-15.9802" y2="186.565" gradientUnits="userSpaceOnUse">
<stop stop-color="white"/>
<stop offset="1" stop-opacity="0"/>
</linearGradient>
<linearGradient id="paint5_linear_19_846" x1="183.254" y1="127.143" x2="-15.9802" y2="186.565" gradientUnits="userSpaceOnUse">
<stop stop-color="white"/>
<stop offset="1" stop-opacity="0"/>
</linearGradient>
<linearGradient id="paint6_linear_19_846" x1="91.5244" y1="188.477" x2="-40.203" y2="227.765" gradientUnits="userSpaceOnUse">
<stop stop-color="white"/>
<stop offset="1" stop-opacity="0"/>
</linearGradient>
<linearGradient id="paint7_linear_19_846" x1="91.5244" y1="188.477" x2="-40.203" y2="227.765" gradientUnits="userSpaceOnUse">
<stop stop-color="white"/>
<stop offset="1" stop-opacity="0"/>
</linearGradient>
</defs>
</svg>
