<svg width="20" height="17" viewBox="0 0 20 17" fill="none" xmlns="http://www.w3.org/2000/svg">
<path fill-rule="evenodd" clip-rule="evenodd" d="M12 0.869141H8C4.229 0.869141 2.343 0.869141 1.172 2.04114C-1.19209e-07 3.21214 0 5.09814 0 8.86914C0 12.6401 -1.19209e-07 14.5261 1.172 15.6971C2.343 16.8691 4.229 16.8691 8 16.8691H12C15.771 16.8691 17.657 16.8691 18.828 15.6971C20 14.5261 20 12.6401 20 8.86914C20 7.41614 20 6.24214 19.933 5.28214C19.1176 5.98494 18.0765 6.37079 17 6.36914C16.521 6.36914 16.06 6.29414 15.627 6.15614L14.284 7.27614C13.397 8.01414 12.679 8.61314 12.044 9.02114C11.384 9.44614 10.741 9.71414 10 9.71414C9.259 9.71414 8.616 9.44514 7.955 9.02114C7.321 8.61314 6.603 8.01414 5.716 7.27614L3.52 5.44614C3.3671 5.31884 3.27104 5.13601 3.25294 4.93788C3.23484 4.73974 3.2962 4.54254 3.4235 4.38964C3.5508 4.23674 3.73363 4.14068 3.93176 4.12258C4.1299 4.10449 4.3271 4.16584 4.48 4.29314L6.639 6.09214C7.572 6.86914 8.219 7.40714 8.767 7.75914C9.296 8.09914 9.655 8.21414 10 8.21414C10.345 8.21414 10.704 8.10014 11.233 7.75914C11.78 7.40714 12.428 6.86914 13.361 6.09214L14.201 5.39214C13.5357 4.86547 13.0331 4.16113 12.7516 3.36066C12.47 2.5602 12.4209 1.69635 12.61 0.869141H12Z" fill="#FAFAFA"/>
</svg>
