<svg width="21" height="22" viewBox="0 0 21 22" fill="none" xmlns="http://www.w3.org/2000/svg">
<path d="M3 0.369141C1.34531 0.369141 0 1.71445 0 3.36914V18.3691C0 20.0238 1.34531 21.3691 3 21.3691H7.60312V14.5348H5.12813V10.8691H7.60312V9.28945C7.60312 5.20664 9.45 3.31289 13.4625 3.31289C14.2219 3.31289 15.5344 3.46289 16.0734 3.61289V6.93164C15.7922 6.90352 15.3 6.88477 14.6859 6.88477C12.7172 6.88477 11.9578 7.63008 11.9578 9.56602V10.8691H15.8766L15.2016 14.5348H11.9531V21.3691H18C19.6547 21.3691 21 20.0238 21 18.3691V3.36914C21 1.71445 19.6547 0.369141 18 0.369141H3Z" fill="#FAFAFA"/>
</svg>
