<svg width="21" height="22" viewBox="0 0 21 22" fill="none" xmlns="http://www.w3.org/2000/svg">
<path d="M10.5048 5.47842C7.52354 5.47842 5.11885 7.88311 5.11885 10.8644C5.11885 13.8456 7.52354 16.2503 10.5048 16.2503C13.486 16.2503 15.8907 13.8456 15.8907 10.8644C15.8907 7.88311 13.486 5.47842 10.5048 5.47842ZM10.5048 14.3659C8.57822 14.3659 7.00322 12.7956 7.00322 10.8644C7.00322 8.93311 8.57353 7.36279 10.5048 7.36279C12.436 7.36279 14.0063 8.93311 14.0063 10.8644C14.0063 12.7956 12.4313 14.3659 10.5048 14.3659ZM17.3673 5.25811C17.3673 5.95654 16.8048 6.51436 16.111 6.51436C15.4126 6.51436 14.8548 5.95186 14.8548 5.25811C14.8548 4.56436 15.4173 4.00186 16.111 4.00186C16.8048 4.00186 17.3673 4.56436 17.3673 5.25811ZM20.9345 6.53311C20.8548 4.85029 20.4704 3.35967 19.2376 2.13154C18.0095 0.903418 16.5188 0.519043 14.836 0.434668C13.1017 0.33623 7.90322 0.33623 6.16885 0.434668C4.49072 0.514355 3.0001 0.89873 1.76729 2.12686C0.534473 3.35498 0.154785 4.84561 0.0704102 6.52842C-0.0280273 8.26279 -0.0280273 13.4612 0.0704102 15.1956C0.150098 16.8784 0.534473 18.369 1.76729 19.5972C3.0001 20.8253 4.48604 21.2097 6.16885 21.294C7.90322 21.3925 13.1017 21.3925 14.836 21.294C16.5188 21.2144 18.0095 20.83 19.2376 19.5972C20.4657 18.369 20.8501 16.8784 20.9345 15.1956C21.0329 13.4612 21.0329 8.26748 20.9345 6.53311ZM18.6938 17.0565C18.3282 17.9753 17.6204 18.6831 16.697 19.0534C15.3142 19.6019 12.0329 19.4753 10.5048 19.4753C8.97666 19.4753 5.69072 19.5972 4.3126 19.0534C3.39385 18.6878 2.68604 17.98 2.31572 17.0565C1.76729 15.6737 1.89385 12.3925 1.89385 10.8644C1.89385 9.33623 1.77197 6.05029 2.31572 4.67217C2.68135 3.75342 3.38916 3.04561 4.3126 2.67529C5.69541 2.12686 8.97666 2.25342 10.5048 2.25342C12.0329 2.25342 15.3188 2.13154 16.697 2.67529C17.6157 3.04092 18.3235 3.74873 18.6938 4.67217C19.2423 6.05498 19.1157 9.33623 19.1157 10.8644C19.1157 12.3925 19.2423 15.6784 18.6938 17.0565Z" fill="#FAFAFA"/>
</svg>
