<svg width="32" height="36" viewBox="0 0 32 36" fill="none" xmlns="http://www.w3.org/2000/svg">
<path d="M16.0069 9.91404C11.5351 9.91404 7.92803 13.5211 7.92803 17.9929C7.92803 22.4648 11.5351 26.0718 16.0069 26.0718C20.4788 26.0718 24.0858 22.4648 24.0858 17.9929C24.0858 13.5211 20.4788 9.91404 16.0069 9.91404ZM16.0069 23.2453C13.1171 23.2453 10.7546 20.8898 10.7546 17.9929C10.7546 15.0961 13.1101 12.7406 16.0069 12.7406C18.9038 12.7406 21.2593 15.0961 21.2593 17.9929C21.2593 20.8898 18.8968 23.2453 16.0069 23.2453ZM26.3007 9.58357C26.3007 10.6312 25.4569 11.4679 24.4163 11.4679C23.3687 11.4679 22.5319 10.6242 22.5319 9.58357C22.5319 8.54294 23.3757 7.69919 24.4163 7.69919C25.4569 7.69919 26.3007 8.54294 26.3007 9.58357ZM31.6515 11.4961C31.5319 8.97185 30.9554 6.73591 29.1062 4.89373C27.264 3.05154 25.028 2.47498 22.5038 2.34841C19.9022 2.20076 12.1046 2.20076 9.50303 2.34841C6.98584 2.46794 4.7499 3.04451 2.90068 4.88669C1.05147 6.72888 0.481934 8.96482 0.355371 11.489C0.207715 14.0906 0.207715 21.8883 0.355371 24.4898C0.474902 27.014 1.05147 29.25 2.90068 31.0922C4.7499 32.9344 6.97881 33.5109 9.50303 33.6375C12.1046 33.7851 19.9022 33.7851 22.5038 33.6375C25.028 33.5179 27.264 32.9414 29.1062 31.0922C30.9483 29.25 31.5249 27.014 31.6515 24.4898C31.7991 21.8883 31.7991 14.0976 31.6515 11.4961ZM28.2905 27.2812C27.7421 28.6593 26.6804 29.7211 25.2952 30.2765C23.221 31.0992 18.2991 30.9093 16.0069 30.9093C13.7147 30.9093 8.78584 31.0922 6.71865 30.2765C5.34053 29.7281 4.27881 28.6664 3.72334 27.2812C2.90068 25.207 3.09053 20.2851 3.09053 17.9929C3.09053 15.7008 2.90772 10.7719 3.72334 8.70466C4.27178 7.32654 5.3335 6.26482 6.71865 5.70935C8.79287 4.88669 13.7147 5.07654 16.0069 5.07654C18.2991 5.07654 23.228 4.89373 25.2952 5.70935C26.6733 6.25779 27.7351 7.31951 28.2905 8.70466C29.1132 10.7789 28.9233 15.7008 28.9233 17.9929C28.9233 20.2851 29.1132 25.214 28.2905 27.2812Z" fill="#FAFAFA"/>
</svg>
