<svg width="52" height="52" viewBox="0 0 52 52" fill="none" xmlns="http://www.w3.org/2000/svg">
<rect width="52" height="52" rx="10" fill="#EBC000"/>
<path d="M26.0069 17.914C21.5351 17.914 17.928 21.5211 17.928 25.9929C17.928 30.4648 21.5351 34.0718 26.0069 34.0718C30.4788 34.0718 34.0858 30.4648 34.0858 25.9929C34.0858 21.5211 30.4788 17.914 26.0069 17.914ZM26.0069 31.2453C23.1171 31.2453 20.7546 28.8898 20.7546 25.9929C20.7546 23.0961 23.1101 20.7406 26.0069 20.7406C28.9038 20.7406 31.2593 23.0961 31.2593 25.9929C31.2593 28.8898 28.8968 31.2453 26.0069 31.2453ZM36.3007 17.5836C36.3007 18.6312 35.4569 19.4679 34.4163 19.4679C33.3687 19.4679 32.5319 18.6242 32.5319 17.5836C32.5319 16.5429 33.3757 15.6992 34.4163 15.6992C35.4569 15.6992 36.3007 16.5429 36.3007 17.5836ZM41.6515 19.4961C41.5319 16.9719 40.9554 14.7359 39.1062 12.8937C37.264 11.0515 35.028 10.475 32.5038 10.3484C29.9022 10.2008 22.1046 10.2008 19.503 10.3484C16.9858 10.4679 14.7499 11.0445 12.9007 12.8867C11.0515 14.7289 10.4819 16.9648 10.3554 19.489C10.2077 22.0906 10.2077 29.8883 10.3554 32.4898C10.4749 35.014 11.0515 37.25 12.9007 39.0922C14.7499 40.9344 16.9788 41.5109 19.503 41.6375C22.1046 41.7851 29.9022 41.7851 32.5038 41.6375C35.028 41.5179 37.264 40.9414 39.1062 39.0922C40.9483 37.25 41.5249 35.014 41.6515 32.4898C41.7991 29.8883 41.7991 22.0976 41.6515 19.4961ZM38.2905 35.2812C37.7421 36.6593 36.6804 37.7211 35.2952 38.2765C33.221 39.0992 28.2991 38.9093 26.0069 38.9093C23.7147 38.9093 18.7858 39.0922 16.7187 38.2765C15.3405 37.7281 14.2788 36.6664 13.7233 35.2812C12.9007 33.207 13.0905 28.2851 13.0905 25.9929C13.0905 23.7008 12.9077 18.7719 13.7233 16.7047C14.2718 15.3265 15.3335 14.2648 16.7187 13.7094C18.7929 12.8867 23.7147 13.0765 26.0069 13.0765C28.2991 13.0765 33.228 12.8937 35.2952 13.7094C36.6733 14.2578 37.7351 15.3195 38.2905 16.7047C39.1132 18.7789 38.9233 23.7008 38.9233 25.9929C38.9233 28.2851 39.1132 33.214 38.2905 35.2812Z" fill="#FAFAFA"/>
</svg>
