<svg width="52" height="52" viewBox="0 0 52 52" fill="none" xmlns="http://www.w3.org/2000/svg">
<rect width="52" height="52" rx="10" fill="#00990F"/>
<path d="M26.0069 17.9141C21.5351 17.9141 17.928 21.5211 17.928 25.993C17.928 30.4648 21.5351 34.0719 26.0069 34.0719C30.4788 34.0719 34.0858 30.4648 34.0858 25.993C34.0858 21.5211 30.4788 17.9141 26.0069 17.9141ZM26.0069 31.2453C23.1171 31.2453 20.7546 28.8899 20.7546 25.993C20.7546 23.0961 23.1101 20.7406 26.0069 20.7406C28.9038 20.7406 31.2593 23.0961 31.2593 25.993C31.2593 28.8899 28.8968 31.2453 26.0069 31.2453ZM36.3007 17.5836C36.3007 18.6313 35.4569 19.468 34.4163 19.468C33.3687 19.468 32.5319 18.6242 32.5319 17.5836C32.5319 16.543 33.3757 15.6992 34.4163 15.6992C35.4569 15.6992 36.3007 16.543 36.3007 17.5836ZM41.6515 19.4961C41.5319 16.9719 40.9554 14.7359 39.1062 12.8938C37.264 11.0516 35.028 10.475 32.5038 10.3484C29.9022 10.2008 22.1046 10.2008 19.503 10.3484C16.9858 10.468 14.7499 11.0445 12.9007 12.8867C11.0515 14.7289 10.4819 16.9648 10.3554 19.4891C10.2077 22.0906 10.2077 29.8883 10.3554 32.4898C10.4749 35.0141 11.0515 37.25 12.9007 39.0922C14.7499 40.9344 16.9788 41.5109 19.503 41.6375C22.1046 41.7852 29.9022 41.7852 32.5038 41.6375C35.028 41.518 37.264 40.9414 39.1062 39.0922C40.9483 37.25 41.5249 35.0141 41.6515 32.4898C41.7991 29.8883 41.7991 22.0977 41.6515 19.4961ZM38.2905 35.2813C37.7421 36.6594 36.6804 37.7211 35.2952 38.2766C33.221 39.0992 28.2991 38.9094 26.0069 38.9094C23.7147 38.9094 18.7858 39.0922 16.7187 38.2766C15.3405 37.7281 14.2788 36.6664 13.7233 35.2813C12.9007 33.207 13.0905 28.2852 13.0905 25.993C13.0905 23.7008 12.9077 18.7719 13.7233 16.7047C14.2718 15.3266 15.3335 14.2648 16.7187 13.7094C18.7929 12.8867 23.7147 13.0766 26.0069 13.0766C28.2991 13.0766 33.228 12.8938 35.2952 13.7094C36.6733 14.2578 37.7351 15.3195 38.2905 16.7047C39.1132 18.7789 38.9233 23.7008 38.9233 25.993C38.9233 28.2852 39.1132 33.2141 38.2905 35.2813Z" fill="#FAFAFA"/>
</svg>
